<svg xmlns="http://www.w3.org/2000/svg" x="0px" y="0px" width="100" height="100" viewBox="0 0 50 30">
  <path fill="#333333" d="M2.54 6 l4 0 c0.6 0 0.6 2.28 0 2.28 l-2.86 0 l0 3.64 l2 0 c0.6 0 0.6 2.3 0 2.3 l-2 0 l0 5.34 c0 0.6 -2.28 0.6 -2.28 0 l0 -12.46 c0 -1.1 0 -1.1 1.14 -1.1 z M9.4 19.56 l0 -13.14 c0 -0.6 2.28 -0.6 2.28 0 l0 13.14 c0 0.6 -2.28 0.6 -2.28 0 z M16.76 17.740000000000002 l2.88 0 c0.4 0 0.4 2.26 0 2.26 l-4.02 0 c-1.14 0 -1.14 0 -1.14 -1.1 l0 -12.44 c0 -0.4 2.28 -0.4 2.28 0 l0 11.28 z M24.62 17.72 l2.86 0 c0.6 0 0.6 2.28 0 2.28 l-3.86 0 c-1.28 0 -1.28 0 -1.28 -1.08 l0 -11.84 c0 -1.08 0 -1.08 1.22 -1.1 l3.9 0.02 c0.6 0 0.6 2.28 0 2.28 l-2.84 0 l0 3.64 l2 0 c0.6 0 0.6 2.3 0 2.3 l-2 0 l0 3.5 z M38.540000000000006 6.4399999999999995 l0 8.6 c0 6.6 -7.8 6.64 -7.8 -0.02 l0 -8.6 c0 -0.6 2.28 -0.6 2.28 0 l0 8.6 c0 3.66 3.24 3.68 3.24 0.02 l0 -8.6 c0 -0.6 2.28 -0.6 2.28 0 z M48.720000000000006 10.34 c-0.02 1.28 -0.2 2.56 -1.46 3.5 c-1.06 0.82 -2.38 0.64 -3.64 0.64 l0 5.08 c0 0.6 -2.28 0.6 -2.28 0 l0 -12.3 c0 -0.94 0.02 -1.24 1.42 -1.26 l2.06 0 c0.72 0 1.52 0.02 2.14 0.42 c1.36 0.86 1.78 2.38 1.76 3.92 z M46.440000000000005 10.76 c0.02 -0.22 0.02 -1.02 -0.02 -1.4 c-0.08 -0.74 -0.36 -1.12 -1.28 -1.12 l-1.52 0 l0 3.96 l1.72 0 c0.92 0 1.06 -1.12 1.1 -1.44 z"></path>
</svg>
