<?xml version="1.0" encoding="UTF-8"?>
<svg version="1.1" xmlns="http://www.w3.org/2000/svg" width="512" height="512">
<path d="M0 0 C1.1896351 -0.00384115 2.37927019 -0.00768229 3.60495484 -0.01163983 C4.91329564 -0.01077335 6.22163645 -0.00990687 7.56962395 -0.00901413 C8.972507 -0.01159795 10.37538931 -0.01461116 11.7782706 -0.01801753 C15.63786743 -0.026089 19.49744567 -0.02787719 23.35704994 -0.028615 C27.51808738 -0.03046533 31.67911516 -0.03801263 35.84014702 -0.04475021 C44.94152967 -0.05833571 54.04290792 -0.06435876 63.14429903 -0.06876087 C68.82766914 -0.07152326 74.51103755 -0.07576064 80.19440651 -0.08026505 C95.93068968 -0.09245863 111.66697149 -0.10275735 127.40325928 -0.10614014 C128.41055861 -0.1063597 129.41785794 -0.10657927 130.4556815 -0.10680549 C131.46539177 -0.10702377 132.47510204 -0.10724204 133.51540959 -0.10746694 C135.56146566 -0.1079104 137.60752173 -0.10835697 139.6535778 -0.10880661 C140.66849233 -0.10902804 141.68340686 -0.10924947 142.72907637 -0.10947761 C159.16969695 -0.11342455 175.61027318 -0.130875 192.05087663 -0.15416613 C208.93117856 -0.17788705 225.81145824 -0.19034235 242.69177711 -0.19150805 C252.16899904 -0.19242447 261.64616321 -0.19816814 271.12336922 -0.21632767 C279.19465279 -0.23173872 287.26586076 -0.23684323 295.33715625 -0.22858956 C299.45382158 -0.22468645 303.57033467 -0.22559601 307.6869812 -0.23964691 C311.45982925 -0.25240632 315.232411 -0.25117056 319.00525878 -0.2390562 C321.00785705 -0.23618127 323.01046001 -0.24801958 325.01302159 -0.26047826 C332.26411508 -0.2208331 338.4163691 0.56146166 345.21021843 3.13142776 C346.1151403 3.46142776 347.02006218 3.79142776 347.95240593 4.13142776 C360.66509304 10.09195505 370.618205 20.85944847 375.52271843 33.94392776 C377.09972607 38.55517796 378.33301357 42.67588748 378.34443951 47.56973553 C378.34889735 48.45794851 378.35335519 49.34616149 378.35794812 50.26129001 C378.35767158 51.71879935 378.35767158 51.71879935 378.35738945 53.20575333 C378.36106614 54.24130452 378.36474283 55.27685572 378.36853093 56.34378725 C378.37957229 59.82500769 378.38341243 63.30619829 378.38722038 66.78743362 C378.39348481 69.27921519 378.40013159 71.77099582 378.4071331 74.26277542 C378.42636458 81.74955674 378.43696323 89.23633012 378.44586089 96.72312889 C378.4502474 100.25246938 378.45561338 103.78180838 378.46084976 107.31114769 C378.47786287 119.05076505 378.4923547 130.79038148 378.4995985 142.53000927 C378.50150828 145.57561558 378.50342862 148.62122188 378.50538445 151.66682816 C378.50586819 152.42376288 378.50635193 153.18069761 378.50685032 153.96056975 C378.51514183 166.20888088 378.54046347 178.45709408 378.57296512 190.70536249 C378.60609303 203.29276198 378.62405255 215.88011181 378.62724274 228.46755511 C378.62940287 235.52984443 378.63807797 242.59199105 378.66370392 249.65423775 C378.68777597 256.30348929 378.6912007 262.95253111 378.68094254 269.60183334 C378.68044806 272.03618409 378.68674241 274.47054762 378.70049858 276.90485954 C378.8060967 296.70728087 377.12639851 311.88566033 362.89771843 326.94392776 C352.62207319 336.68057977 339.51788709 342.24021437 325.33165741 342.26564884 C323.59380775 342.27233561 323.59380775 342.27233561 321.82085001 342.27915746 C319.92574421 342.27888092 319.92574421 342.27888092 317.99235344 342.27859879 C316.62914341 342.28190078 315.26593435 342.28562705 313.90272653 342.28974026 C310.16184844 342.29973052 306.4209864 342.30347226 302.68009686 342.30612957 C298.64304187 342.31004155 294.60599948 342.31961934 290.56895256 342.32834244 C280.82120063 342.34808293 271.07344771 342.35817056 261.32568079 342.36707023 C256.73030153 342.37145759 252.13492342 342.37682328 247.53954506 342.3820591 C232.25441604 342.39906991 216.96928773 342.41356236 201.6841507 342.42080784 C197.7196954 342.4227176 193.75524011 342.42463795 189.79078484 342.42659378 C188.31284364 342.42731939 188.31284364 342.42731939 186.80504505 342.42805966 C170.85681227 342.43635356 154.90865465 342.46168033 138.96045466 342.49417446 C122.57048609 342.52729517 106.18055565 342.54526117 89.79055345 342.54845208 C80.59483959 342.55061267 71.3992353 342.55929498 62.20355415 342.58491325 C54.36926318 342.60668893 46.5351084 342.6146371 38.7007906 342.60494647 C34.70888496 342.60042141 30.7172599 342.60218237 26.7253933 342.62170792 C3.17420463 342.7304358 -16.37786771 342.56378659 -34.46556282 325.61189651 C-44.96828801 314.40310577 -48.9438325 301.06764408 -48.93022346 286.0752449 C-48.93319459 285.05376236 -48.93616571 284.03227982 -48.93922687 282.97984326 C-48.94790785 279.55233581 -48.94942162 276.12486331 -48.95091438 272.69734573 C-48.95554302 270.2415802 -48.96056774 267.78581539 -48.96595955 265.33005142 C-48.97908205 258.65420066 -48.98556524 251.97836357 -48.98997021 245.30250311 C-48.99273579 241.13089464 -48.99697376 236.95928848 -49.00147438 232.78768158 C-49.01366568 221.22902128 -49.02396477 209.67036283 -49.02734947 198.11169624 C-49.02756904 197.37226861 -49.0277886 196.63284097 -49.02801482 195.87100644 C-49.0282331 195.12984504 -49.02845138 194.38868365 -49.02867627 193.62506282 C-49.02911973 192.12327822 -49.02956629 190.62149362 -49.03001595 189.11970901 C-49.03023738 188.37477763 -49.0304588 187.62984624 -49.03068694 186.86234118 C-49.03463231 174.80029069 -49.05207894 162.7383007 -49.07537547 150.67627357 C-49.09912165 138.28095374 -49.11155283 125.88566422 -49.11271739 113.49032128 C-49.1136324 106.53545022 -49.1193405 99.58065799 -49.137537 92.62580872 C-49.15460123 86.0808091 -49.15616622 79.53593228 -49.14739799 72.99090767 C-49.14662835 70.59280942 -49.15096066 68.19470309 -49.16085625 65.79662514 C-49.17360375 62.51407763 -49.16768332 59.23205689 -49.15727425 55.94951248 C-49.16533065 55.00833631 -49.17338706 54.06716015 -49.18168759 53.09746349 C-49.07370546 38.462174 -43.37923421 24.94819201 -33.27415657 14.38533401 C-24.20875698 6.16090703 -12.39139149 0.01501145 0 0 Z M-2.78978157 46.13142776 C-6.19624337 51.24112046 -5.93298689 56.30142405 -5.91003609 62.28750992 C-5.91089051 63.10440896 -5.91174494 63.92130801 -5.91262525 64.76296157 C-5.91427108 67.49754104 -5.90877336 70.23205903 -5.90330696 72.96663284 C-5.90302487 74.92793654 -5.90318325 76.88924034 -5.90374947 78.85054398 C-5.90403658 84.17446751 -5.89815362 89.49836854 -5.89117551 94.82228684 C-5.88492778 100.38632611 -5.88433704 105.95036588 -5.8831501 111.51440811 C-5.88004098 122.05049685 -5.87183322 132.58657522 -5.86180061 143.12265939 C-5.85062648 155.11770896 -5.84512574 167.11275904 -5.84010518 179.10781252 C-5.82965028 203.78235669 -5.81205892 228.45689164 -5.78978157 253.13142776 C-1.43296628 249.48126047 2.7205259 245.73481036 6.71143913 241.68025589 C7.21333763 241.17207825 7.71523613 240.6639006 8.23234367 240.14032364 C9.30932053 239.04962431 10.38520038 237.95784085 11.46006012 236.86505508 C13.16944737 235.12870244 14.88345143 233.39703385 16.59893608 231.66670609 C21.47204417 226.75117484 26.34241261 221.83303628 31.19630241 216.89851761 C34.17819007 213.86777717 37.17003677 210.84717501 40.16836929 207.83270645 C41.29982242 206.69143938 42.42763347 205.54654822 43.55149078 204.39780045 C54.55044435 193.16066585 64.9290941 185.34850942 81.21021843 185.13142776 C97.50476124 186.35692263 106.54072318 195.7968017 117.33521843 206.94392776 C118.68560331 208.31943382 120.03715677 209.69379367 121.38990593 211.06697464 C124.67697624 214.40871883 127.94780635 217.7656137 131.21021843 221.13142776 C134.81506844 217.56194893 138.20682773 213.89645319 141.46021843 210.00642776 C142.17854851 209.15274612 142.17854851 209.15274612 142.9113903 208.28181839 C146.61519612 203.86971505 150.26122241 199.41162288 153.89771843 194.94392776 C156.93389209 191.25128413 160.02871813 187.61020988 163.12428093 183.96736526 C166.02266666 180.55083237 168.88176943 177.10637939 171.71021843 173.63142776 C175.45809641 169.02689196 179.28005287 164.49123585 183.12428093 159.96736526 C186.02266666 156.55083237 188.88176943 153.10637939 191.71021843 149.63142776 C196.79258404 143.39232303 201.98907702 137.25440269 207.21021843 131.13142776 C207.89599968 130.31931839 208.58178093 129.50720901 209.28834343 128.67049026 C215.16760789 121.79430704 222.0156013 115.78296521 231.21021843 114.13142776 C240.85950853 113.51957049 249.55563174 113.25369593 258.21021843 118.13142776 C259.75709343 118.99767776 259.75709343 118.99767776 261.33521843 119.88142776 C268.14563089 125.21131578 273.52984517 131.62379313 278.92506218 138.34236526 C281.11482644 141.01500062 283.38133041 143.57977655 285.71021843 146.13142776 C289.62913095 150.43134567 293.30192712 154.89062323 296.96021843 159.41267776 C299.14523412 162.05290506 301.40193234 164.59872497 303.71021843 167.13142776 C307.62790685 171.43000255 311.29988985 175.88752582 314.95631218 180.40877151 C317.86090648 183.91744088 320.92424003 187.26492593 323.99537468 190.62752151 C327.03928748 194.06869983 329.86448647 197.66570203 332.67896843 201.29549026 C333.18428093 201.90134964 333.68959343 202.50720901 334.21021843 203.13142776 C334.54021843 203.13142776 334.87021843 203.13142776 335.21021843 203.13142776 C335.30367172 183.41675662 335.37420251 163.70213044 335.41746712 143.98728371 C335.43808984 134.83327071 335.46620487 125.67939537 335.51197624 116.52547073 C335.55185291 108.54663552 335.57765336 100.56790001 335.58657241 92.58896792 C335.59178577 88.36438253 335.60403287 84.14008234 335.63313866 79.91558838 C335.66032098 75.93798394 335.66865782 71.96078176 335.66264915 67.98309326 C335.66374814 66.52461434 335.67168556 65.06612174 335.68704033 63.60772324 C335.70700812 61.61306917 335.69975761 59.61819849 335.6912365 57.62346268 C335.69492367 56.50809317 335.69861084 55.39272366 335.70240974 54.24355507 C335.08301369 50.32711181 333.70468752 48.18695662 331.21021843 45.13142776 C328.00160659 43.06465354 325.43202913 42.8802813 321.65634823 42.87695217 C320.51936397 42.87111998 319.3823797 42.86528778 318.21094137 42.85927886 C316.96144514 42.86305818 315.71194891 42.86683751 314.42458916 42.87073135 C313.08413811 42.8677114 311.74368879 42.8638227 310.40324253 42.85913879 C306.7163919 42.84882991 303.0296382 42.85104792 299.34277952 42.85531938 C295.36792785 42.85778137 291.39309983 42.84877903 287.41825676 42.84128189 C279.62991299 42.82851828 271.84160368 42.82674326 264.05325121 42.82908215 C257.72424685 42.83086357 251.39525296 42.82911946 245.06624985 42.82485771 C244.16624302 42.82426252 243.26623619 42.82366733 242.33895643 42.82305411 C240.51072622 42.82184239 238.68249601 42.82062825 236.8542658 42.81941173 C219.70072599 42.80852984 202.54720582 42.81070179 185.39366489 42.81679658 C169.69331275 42.82196665 153.99302264 42.81070907 138.29268277 42.79169836 C122.1796793 42.77233722 106.06670519 42.7640609 89.95368999 42.76782161 C80.9042001 42.76973624 71.85476301 42.76722069 62.80528259 42.75310707 C55.10165713 42.74121426 47.39811697 42.73976473 39.69449038 42.75189724 C35.76274533 42.75780067 31.83115649 42.75884515 27.89942169 42.74689484 C24.3013803 42.73608569 20.70362646 42.73907963 17.1055988 42.75315652 C15.18480649 42.75707939 13.26400164 42.74621589 11.34323889 42.73485965 C10.20364688 42.74206619 9.06405487 42.74927273 7.88992977 42.75669765 C6.90672381 42.75664264 5.92351784 42.75658762 4.91051775 42.75653094 C1.68061032 43.20495606 -0.17114636 44.21178803 -2.78978157 46.13142776 Z " fill="rgba(29,28,28,0.708)" transform="translate(133.78978157043457,21.868572235107422)"/>
<path d="M0 0 C0.33 0 0.66 0 1 0 C1.00146656 0.78315803 1.00293312 1.56631605 1.00444412 2.37320614 C1.04162222 21.49813359 1.10078163 40.62288003 1.18390274 59.74766445 C1.22358001 68.99657388 1.25602962 78.24539961 1.27099609 87.49438477 C1.28407161 95.56314879 1.31118519 103.63172778 1.35461307 111.70038754 C1.37709628 115.96605288 1.39291867 120.23149115 1.39188385 124.49722099 C1.39112936 128.5266722 1.40939032 132.55562398 1.44116783 136.58494568 C1.44956505 138.05004656 1.45148765 139.51520415 1.44580269 140.98031807 C1.36640746 164.62328365 8.90986143 185.68069101 25.375 202.875 C30.47967035 207.7732053 35.83131162 211.56393235 42 215 C42.79921875 215.46019531 43.5984375 215.92039062 44.421875 216.39453125 C57.89518969 223.6815691 71.94398025 225.1460434 86.95861816 225.15821838 C88.25585611 225.16315636 89.55309405 225.16809434 90.88964224 225.17318195 C94.47446163 225.1866977 98.0592716 225.19416227 101.64410973 225.20060861 C105.51586377 225.20864156 109.38759838 225.2223293 113.25933838 225.23532104 C119.96213673 225.25704285 126.66493708 225.27520297 133.36775208 225.29092598 C143.05882979 225.31366382 152.74988594 225.34180117 162.44094533 225.37124526 C178.16504777 225.41887325 193.88915904 225.46215038 209.61328125 225.50268555 C224.88542365 225.54206489 240.15755822 225.58349694 255.4296875 225.62768555 C256.84237072 225.63177196 256.84237072 225.63177196 258.283593 225.63594092 C263.00839454 225.6496208 267.73319596 225.66334099 272.45799732 225.67708123 C311.63864856 225.79097069 350.81931664 225.89779665 390 226 C389.39374786 230.45288927 388.64825358 234.59596968 387.29760742 238.88427734 C386.95022018 239.99588226 386.60283295 241.10748718 386.24491882 242.2527771 C385.8689003 243.43522003 385.49288177 244.61766296 385.10546875 245.8359375 C384.522528 247.6868248 384.522528 247.6868248 383.92781067 249.57510376 C383.10671662 252.18011599 382.28171042 254.78384685 381.45385742 257.38671875 C380.40097751 260.69813207 379.35773555 264.01248644 378.31743908 267.32787132 C377.31446571 270.51970517 376.30335855 273.70894352 375.29296875 276.8984375 C374.92302292 278.07683197 374.55307709 279.25522644 374.17192078 280.46932983 C371.01553644 290.35755548 367.73327454 299.02164306 361 307 C360.52175781 307.59683594 360.04351562 308.19367188 359.55078125 308.80859375 C352.34881901 316.95388606 340.71460796 322.01636386 330 323 C329.23429687 323.0928125 328.46859375 323.185625 327.6796875 323.28125 C321.77163821 323.65166061 316.27190533 322.5165627 310.5625 321.125 C309.67112839 320.90992294 308.77975677 320.69484589 307.8613739 320.47325134 C292.3782519 316.67830717 277.0006997 312.45264964 261.60703659 308.31349182 C256.83114313 307.03003862 252.05431093 305.75008808 247.27758789 304.46972656 C238.38190354 302.08477821 229.48698479 299.69698902 220.59243488 297.30781364 C210.95010711 294.71780589 201.30714212 292.13017561 191.6640625 289.54296875 C188.37312525 288.66000469 185.08219142 287.77702788 181.79125977 286.89404297 C180.97930303 286.67619267 180.16734629 286.45834236 179.3307848 286.23389053 C174.38116829 284.90584372 169.43167349 283.57734431 164.48226261 282.24853134 C144.35472153 276.84485233 124.22394451 271.45340735 104.08984375 266.07421875 C102.98133749 265.77803524 101.87283123 265.48185173 100.73073387 265.17669296 C90.85157018 262.53707326 80.97240252 259.89746878 71.09249878 257.26062012 C60.09778219 254.32617729 49.10401521 251.38825901 38.11269665 248.44111061 C32.87282993 247.03637576 27.6321832 245.63464837 22.39025879 244.23760986 C16.85422429 242.76207994 11.31985445 241.28044699 5.7865181 239.79483223 C3.69069881 239.23324618 1.59431446 238.67376403 -0.5026741 238.11655998 C-3.41139564 237.34329356 -6.317941 236.56229665 -9.22412109 235.77954102 C-10.06872265 235.55693918 -10.9133242 235.33433735 -11.78351974 235.10499001 C-25.97171966 231.25488212 -37.27978544 225.21929226 -46 213 C-54.21505901 197.80214084 -55.49669935 183.33989083 -50.58241272 166.74575806 C-50.22134933 165.57540009 -49.86028595 164.40504211 -49.48828125 163.19921875 C-49.09359828 161.88458752 -48.70017762 160.56957683 -48.30784607 159.25424194 C-47.40546713 156.23758343 -46.49474263 153.22358986 -45.57897949 150.21096802 C-43.80912052 144.38197598 -42.06817446 138.54444396 -40.32714844 132.70678711 C-36.45551413 119.73438842 -32.56291567 106.76833195 -28.6673584 93.80310059 C-27.19799152 88.91154235 -25.72999192 84.01957428 -24.2620182 79.12759781 C-20.14620122 65.41199369 -16.02543074 51.69788625 -11.89853668 37.98561096 C-11.31348241 36.04162305 -10.72853142 34.09760405 -10.14369965 32.15354919 C-8.65579697 27.20775148 -7.16622658 22.26246529 -5.67292595 17.31829453 C-5.24799409 15.91063141 -4.82364797 14.50279131 -4.39993477 13.09476089 C-3.83598911 11.22134098 -3.2695209 9.34868095 -2.70288086 7.47607422 C-2.39458847 6.45488495 -2.08629608 5.43369568 -1.7686615 4.38156128 C-1 2 -1 2 0 0 Z " fill="rgba(29,28,28,0.708)" transform="translate(53,169)"/>
<path d="M0 0 C13.22157816 7.06177469 20.366483 15.85394625 24.9609375 30.1640625 C27.27041647 42.64458019 24.84576715 54.2898604 18.0625 64.87109375 C11.11125624 74.52999739 1.39551535 80.94440476 -10.453125 83.0078125 C-24.25480191 84.5522275 -35.87126813 81.09071467 -46.8046875 72.578125 C-54.84964745 65.36699967 -60.12588432 54.65022968 -60.890625 43.90625 C-61.1622014 30.31313642 -58.0377227 19.21626793 -48.65234375 9.09765625 C-36.03511934 -2.97882997 -16.26197436 -7.21358059 0 0 Z " fill="#000000" transform="translate(209.65234375,88.74609375)"/>
</svg>
