<svg viewBox="0 0 100 150" xmlns="http://www.w3.org/2000/svg" class="looka-1j8o68f">
    <g id="SvgjsG1166" featurekey="G09qjj-0"
        transform="matrix(1.6522645650313192,0,0,1.6522645650313192,-32.614050778595896,-9.517044272753745)"
        fill="#000000">
        <path fill-rule="evenodd" clip-rule="evenodd"
            d="M52.032,13.7v4.407l-4.517,2.874V10.041L52.032,13.7L52.032,13.7z M19.739,87.64  c13.173-11.969,50.285,10.84,60.522,0c0,1.129,0,2.258,0,3.387c-12.27,11.291-48.026-11.743-60.522,0  C19.739,89.898,19.739,88.769,19.739,87.64L19.739,87.64z M59.711,9.42v9.443l3.839,2.553V12.53l4.517,3.659v9.114l3.839,2.54V19.3  l4.517,3.659v49.52c1.514-0.479,2.813-1.223,3.839-2.309c0,1.129,0,2.258,0,3.387c-12.27,11.291-48.026-11.743-60.522,0  c0-1.129,0-2.258,0-3.387c7.327-6.657,22.06-2.555,35.455,0.531V5.76L59.711,9.42L59.711,9.42z M43.677,17.851v5.573l-4.517,2.874  V14.192L43.677,17.851L43.677,17.851z M19.739,78.905c13.173-11.969,50.285,10.84,60.522,0c0,1.129,0,2.258,0,3.387  c-12.27,11.291-48.026-11.743-60.522,0C19.739,81.163,19.739,80.034,19.739,78.905L19.739,78.905z">
        </path>
    </g>
</svg>
